# xmcd
#
# Track frame offsets: 
#        150
#        6475
#        17692
#        37063
#        49579
#        65968
#        88019
#        101959
#        107024
#        123874
#        135777
#        160152
#        176504
#        193575
#        205971
#        221367
#        235119
#        246740
#        258308
#        271515
#        285620
#        301566
#        317126
#        326564
#
# Disc length: 4615 seconds
#
# Revision: 0
# Processed by: cddbd v1.5.2PL0 Copyright (c) Steve Scherf et al.
# Submitted via: ExactAudioCopyFreeDBPlugin 1.0
#
DISCID=53120518
DTITLE=Blind Boy Paxton - Live at The Snail Pie Lounge
DYEAR=2010
DGENRE=Blues
TTITLE0=My Four Reasons
TTITLE1=Candyman
TTITLE2=Cross and Evil Woman
TTITLE3=Walkin' Boss
TTITLE4=Railroad Bill
TTITLE5=I Ain't Got Nobody
TTITLE6=One Dime Blues
TTITLE7=Maple Leaf Rag
TTITLE8=Crapshooter's Blues
TTITLE9=Down the Dirt Road
TTITLE10=Skull and Crossbones Blues
TTITLE11=Cigarette Blues
TTITLE12=Some Stealin' Done
TTITLE13=From Four Until Late
TTITLE14=My Handyman
TTITLE15=Could You Blame the Colored Man
TTITLE16=Cuckoo Bird
TTITLE17=Turn Your Money Green
TTITLE18=Cocaine Blues
TTITLE19=Easy Rider
TTITLE20=Samson and Delilah
TTITLE21=Broke and Hungry
TTITLE22=Poor Boy
TTITLE23=Frankie and Albert
EXTD=
EXTT0=
EXTT1=
EXTT2=
EXTT3=
EXTT4=
EXTT5=
EXTT6=
EXTT7=
EXTT8=
EXTT9=
EXTT10=
EXTT11=
EXTT12=
EXTT13=
EXTT14=
EXTT15=
EXTT16=
EXTT17=
EXTT18=
EXTT19=
EXTT20=
EXTT21=
EXTT22=
EXTT23=
PLAYORDER=
